<svg xmlns="http://www.w3.org/2000/svg" width="28" height="28" viewBox="0 0 28 28" fill="none">
  <path fill-rule="evenodd" clip-rule="evenodd" d="M2.6185 25.3798C4.57317 27.3332 7.7145 27.3332 13.9998 27.3332C20.2852 27.3332 23.4278 27.3332 25.3798 25.3798C27.3332 23.4292 27.3332 20.2852 27.3332 13.9998C27.3332 7.7145 27.3332 4.57184 25.3798 2.6185C23.4292 0.666504 20.2852 0.666504 13.9998 0.666504C7.7145 0.666504 4.57184 0.666504 2.6185 2.6185C0.666504 4.57317 0.666504 7.7145 0.666504 13.9998C0.666504 20.2852 0.666504 23.4278 2.6185 25.3798ZM10.6665 9.6665C9.80945 9.6665 8.97165 9.92065 8.25903 10.3968C7.54642 10.873 6.99101 11.5497 6.66303 12.3415C6.33505 13.1334 6.24923 14.0046 6.41643 14.8452C6.58364 15.6858 6.99635 16.4579 7.60237 17.064C8.2084 17.67 8.98053 18.0827 9.82111 18.2499C10.6617 18.4171 11.533 18.3313 12.3248 18.0033C13.1166 17.6753 13.7934 17.1199 14.2695 16.4073C14.7457 15.6947 14.9998 14.8569 14.9998 13.9998C14.9998 13.7346 15.1052 13.4803 15.2927 13.2927C15.4803 13.1052 15.7346 12.9998 15.9998 12.9998C16.2651 12.9998 16.5194 13.1052 16.7069 13.2927C16.8945 13.4803 16.9998 13.7346 16.9998 13.9998C16.9998 15.2525 16.6284 16.4769 15.9325 17.5184C15.2366 18.56 14.2474 19.3717 13.0902 19.8511C11.9329 20.3304 10.6595 20.4558 9.43093 20.2115C8.20239 19.9671 7.07389 19.3639 6.18816 18.4782C5.30243 17.5924 4.69924 16.464 4.45486 15.2354C4.21049 14.0069 4.33591 12.7334 4.81527 11.5762C5.29462 10.4189 6.10638 9.42978 7.14789 8.73386C8.1894 8.03795 9.41389 7.6665 10.6665 7.6665C10.9317 7.6665 11.1861 7.77186 11.3736 7.9594C11.5611 8.14693 11.6665 8.40129 11.6665 8.6665C11.6665 8.93172 11.5611 9.18607 11.3736 9.37361C11.1861 9.56115 10.9317 9.6665 10.6665 9.6665ZM21.6665 13.9998C21.6665 15.1491 21.21 16.2513 20.3973 17.064C19.5846 17.8766 18.4824 18.3332 17.3332 18.3332C17.068 18.3332 16.8136 18.4385 16.6261 18.6261C16.4385 18.8136 16.3332 19.068 16.3332 19.3332C16.3332 19.5984 16.4385 19.8527 16.6261 20.0403C16.8136 20.2278 17.068 20.3332 17.3332 20.3332C18.5858 20.3332 19.8103 19.9617 20.8518 19.2658C21.8933 18.5699 22.7051 17.5808 23.1844 16.4235C23.6638 15.2662 23.7892 13.9928 23.5448 12.7643C23.3004 11.5357 22.6972 10.4072 21.8115 9.52149C20.9258 8.63576 19.7973 8.03257 18.5687 7.7882C17.3402 7.54382 16.0668 7.66924 14.9095 8.1486C13.7522 8.62795 12.7631 9.43971 12.0672 10.4812C11.3713 11.5227 10.9998 12.7472 10.9998 13.9998C10.9998 14.2651 11.1052 14.5194 11.2927 14.7069C11.4803 14.8945 11.7346 14.9998 11.9998 14.9998C12.2651 14.9998 12.5194 14.8945 12.7069 14.7069C12.8945 14.5194 12.9998 14.2651 12.9998 13.9998C12.9998 12.8506 13.4564 11.7484 14.269 10.9357C15.0817 10.123 16.1839 9.6665 17.3332 9.6665C18.4824 9.6665 19.5846 10.123 20.3973 10.9357C21.21 11.7484 21.6665 12.8506 21.6665 13.9998Z" fill="#633CFF"/>
</svg>